<mxfile host="app.diagrams.net" agent="Mozilla/5.0 (Windows NT 10.0; Win64; x64) AppleWebKit/537.36 (KHTML, like Gecko) Chrome/130.0.0.0 Safari/537.36" version="24.8.6">
  <diagram name="Page-1" id="MVdp1bd2GnXnwLx68s2U">
    <mxGraphModel grid="1" page="1" gridSize="10" guides="1" tooltips="1" connect="1" arrows="1" fold="1" pageScale="1" pageWidth="1100" pageHeight="850" math="0" shadow="0">
      <root>
        <mxCell id="0" />
        <mxCell id="1" parent="0" />
        <mxCell id="WnnLF2jjsHIoj1KAghEo-8" style="edgeStyle=orthogonalEdgeStyle;rounded=0;orthogonalLoop=1;jettySize=auto;html=1;" edge="1" parent="1" source="WnnLF2jjsHIoj1KAghEo-1" target="WnnLF2jjsHIoj1KAghEo-7">
          <mxGeometry relative="1" as="geometry" />
        </mxCell>
        <mxCell id="WnnLF2jjsHIoj1KAghEo-73" style="edgeStyle=orthogonalEdgeStyle;rounded=0;orthogonalLoop=1;jettySize=auto;html=1;entryX=0;entryY=0.5;entryDx=0;entryDy=0;" edge="1" parent="1" source="WnnLF2jjsHIoj1KAghEo-1" target="WnnLF2jjsHIoj1KAghEo-72">
          <mxGeometry relative="1" as="geometry" />
        </mxCell>
        <mxCell id="WnnLF2jjsHIoj1KAghEo-1" value="" style="ellipse;whiteSpace=wrap;html=1;" vertex="1" parent="1">
          <mxGeometry x="490" y="40" width="120" height="80" as="geometry" />
        </mxCell>
        <mxCell id="WnnLF2jjsHIoj1KAghEo-3" value="" style="edgeStyle=orthogonalEdgeStyle;rounded=0;orthogonalLoop=1;jettySize=auto;html=1;" edge="1" parent="1" source="WnnLF2jjsHIoj1KAghEo-2" target="WnnLF2jjsHIoj1KAghEo-1">
          <mxGeometry relative="1" as="geometry" />
        </mxCell>
        <mxCell id="WnnLF2jjsHIoj1KAghEo-2" value="reset" style="text;html=1;align=center;verticalAlign=middle;whiteSpace=wrap;rounded=0;" vertex="1" parent="1">
          <mxGeometry x="530" width="40" height="20" as="geometry" />
        </mxCell>
        <mxCell id="WnnLF2jjsHIoj1KAghEo-4" value="" style="endArrow=none;dashed=1;html=1;dashPattern=1 3;strokeWidth=2;rounded=0;" edge="1" parent="1">
          <mxGeometry width="50" height="50" relative="1" as="geometry">
            <mxPoint x="550" y="850" as="sourcePoint" />
            <mxPoint x="550" y="120" as="targetPoint" />
          </mxGeometry>
        </mxCell>
        <mxCell id="WnnLF2jjsHIoj1KAghEo-5" value="IDLE" style="text;html=1;align=center;verticalAlign=middle;whiteSpace=wrap;rounded=0;" vertex="1" parent="1">
          <mxGeometry x="500" y="20" width="30" height="20" as="geometry" />
        </mxCell>
        <mxCell id="WnnLF2jjsHIoj1KAghEo-6" value="Receiving Over VPE" style="text;html=1;align=center;verticalAlign=middle;whiteSpace=wrap;rounded=0;" vertex="1" parent="1">
          <mxGeometry x="200" y="-30" width="120" height="30" as="geometry" />
        </mxCell>
        <mxCell id="WnnLF2jjsHIoj1KAghEo-31" style="edgeStyle=orthogonalEdgeStyle;rounded=0;orthogonalLoop=1;jettySize=auto;html=1;exitX=0.5;exitY=1;exitDx=0;exitDy=0;entryX=0.5;entryY=0;entryDx=0;entryDy=0;" edge="1" parent="1" source="WnnLF2jjsHIoj1KAghEo-7" target="WnnLF2jjsHIoj1KAghEo-21">
          <mxGeometry relative="1" as="geometry" />
        </mxCell>
        <mxCell id="WnnLF2jjsHIoj1KAghEo-7" value="" style="ellipse;whiteSpace=wrap;html=1;" vertex="1" parent="1">
          <mxGeometry x="200" y="40" width="120" height="80" as="geometry" />
        </mxCell>
        <mxCell id="WnnLF2jjsHIoj1KAghEo-10" value="newDataEn" style="text;html=1;align=center;verticalAlign=middle;whiteSpace=wrap;rounded=0;" vertex="1" parent="1">
          <mxGeometry x="375" y="60" width="60" height="20" as="geometry" />
        </mxCell>
        <mxCell id="WnnLF2jjsHIoj1KAghEo-11" value="{loadTimebaseLengthEn}" style="text;html=1;align=center;verticalAlign=middle;whiteSpace=wrap;rounded=0;" vertex="1" parent="1">
          <mxGeometry x="330" y="80" width="150" height="20" as="geometry" />
        </mxCell>
        <mxCell id="WnnLF2jjsHIoj1KAghEo-12" value="LOAD_TIMEBASE" style="text;html=1;align=center;verticalAlign=middle;whiteSpace=wrap;rounded=0;" vertex="1" parent="1">
          <mxGeometry x="210" y="20" width="100" height="20" as="geometry" />
        </mxCell>
        <mxCell id="WnnLF2jjsHIoj1KAghEo-15" style="edgeStyle=orthogonalEdgeStyle;rounded=0;orthogonalLoop=1;jettySize=auto;html=1;exitX=0;exitY=1;exitDx=0;exitDy=0;entryX=0;entryY=0;entryDx=0;entryDy=0;" edge="1" parent="1" source="WnnLF2jjsHIoj1KAghEo-7" target="WnnLF2jjsHIoj1KAghEo-7">
          <mxGeometry relative="1" as="geometry">
            <Array as="points">
              <mxPoint x="218" y="110" />
              <mxPoint x="10" y="110" />
              <mxPoint x="10" y="52" />
            </Array>
          </mxGeometry>
        </mxCell>
        <mxCell id="WnnLF2jjsHIoj1KAghEo-16" value="newDataEn, !timebaseLoadedMode" style="text;html=1;align=center;verticalAlign=middle;whiteSpace=wrap;rounded=0;" vertex="1" parent="1">
          <mxGeometry x="10" y="30" width="200" height="20" as="geometry" />
        </mxCell>
        <mxCell id="WnnLF2jjsHIoj1KAghEo-17" value="{shiftInTimebaseEn}" style="text;html=1;align=center;verticalAlign=middle;whiteSpace=wrap;rounded=0;" vertex="1" parent="1">
          <mxGeometry x="55" y="50" width="110" height="20" as="geometry" />
        </mxCell>
        <mxCell id="WnnLF2jjsHIoj1KAghEo-39" style="edgeStyle=orthogonalEdgeStyle;rounded=0;orthogonalLoop=1;jettySize=auto;html=1;exitX=0;exitY=0.5;exitDx=0;exitDy=0;entryX=0;entryY=0.5;entryDx=0;entryDy=0;" edge="1" parent="1" source="WnnLF2jjsHIoj1KAghEo-21" target="WnnLF2jjsHIoj1KAghEo-38">
          <mxGeometry relative="1" as="geometry">
            <Array as="points">
              <mxPoint x="-160" y="280" />
              <mxPoint x="-160" y="440" />
            </Array>
          </mxGeometry>
        </mxCell>
        <mxCell id="WnnLF2jjsHIoj1KAghEo-40" style="edgeStyle=orthogonalEdgeStyle;rounded=0;orthogonalLoop=1;jettySize=auto;html=1;exitX=0.5;exitY=1;exitDx=0;exitDy=0;entryX=0.5;entryY=0;entryDx=0;entryDy=0;" edge="1" parent="1" source="WnnLF2jjsHIoj1KAghEo-21" target="WnnLF2jjsHIoj1KAghEo-38">
          <mxGeometry relative="1" as="geometry" />
        </mxCell>
        <mxCell id="WnnLF2jjsHIoj1KAghEo-21" value="" style="ellipse;whiteSpace=wrap;html=1;" vertex="1" parent="1">
          <mxGeometry x="30" y="240" width="120" height="80" as="geometry" />
        </mxCell>
        <mxCell id="WnnLF2jjsHIoj1KAghEo-23" value="newDataEn, timebaseLoadedMode" style="text;html=1;align=center;verticalAlign=middle;whiteSpace=wrap;rounded=0;" vertex="1" parent="1">
          <mxGeometry x="110" y="150" width="125" height="30" as="geometry" />
        </mxCell>
        <mxCell id="WnnLF2jjsHIoj1KAghEo-24" value="{loadCountLengthEn}" style="text;html=1;align=center;verticalAlign=middle;whiteSpace=wrap;rounded=0;" vertex="1" parent="1">
          <mxGeometry x="112.5" y="180" width="120" height="20" as="geometry" />
        </mxCell>
        <mxCell id="WnnLF2jjsHIoj1KAghEo-28" value="newDataEn, !frameEndEn" style="text;html=1;align=center;verticalAlign=middle;whiteSpace=wrap;rounded=0;" vertex="1" parent="1">
          <mxGeometry x="167.5" y="200" width="152.5" height="20" as="geometry" />
        </mxCell>
        <mxCell id="WnnLF2jjsHIoj1KAghEo-33" style="edgeStyle=orthogonalEdgeStyle;rounded=0;orthogonalLoop=1;jettySize=auto;html=1;exitX=1;exitY=0;exitDx=0;exitDy=0;entryX=1;entryY=1;entryDx=0;entryDy=0;" edge="1" parent="1" source="WnnLF2jjsHIoj1KAghEo-21" target="WnnLF2jjsHIoj1KAghEo-21">
          <mxGeometry relative="1" as="geometry">
            <Array as="points">
              <mxPoint x="132" y="220" />
              <mxPoint x="360" y="220" />
              <mxPoint x="360" y="340" />
              <mxPoint x="132" y="340" />
            </Array>
          </mxGeometry>
        </mxCell>
        <mxCell id="WnnLF2jjsHIoj1KAghEo-37" value="{shiftInCountEn}" style="text;html=1;align=center;verticalAlign=middle;whiteSpace=wrap;rounded=0;" vertex="1" parent="1">
          <mxGeometry x="191.25" y="220" width="105" height="20" as="geometry" />
        </mxCell>
        <mxCell id="WnnLF2jjsHIoj1KAghEo-50" style="edgeStyle=orthogonalEdgeStyle;rounded=0;orthogonalLoop=1;jettySize=auto;html=1;exitX=1;exitY=0.5;exitDx=0;exitDy=0;entryX=0;entryY=0.5;entryDx=0;entryDy=0;" edge="1" parent="1" source="WnnLF2jjsHIoj1KAghEo-38" target="WnnLF2jjsHIoj1KAghEo-49">
          <mxGeometry relative="1" as="geometry" />
        </mxCell>
        <mxCell id="WnnLF2jjsHIoj1KAghEo-38" value="" style="ellipse;whiteSpace=wrap;html=1;" vertex="1" parent="1">
          <mxGeometry x="30" y="400" width="120" height="80" as="geometry" />
        </mxCell>
        <mxCell id="WnnLF2jjsHIoj1KAghEo-41" value="!newDataEn, frameEndEn" style="text;html=1;align=center;verticalAlign=middle;whiteSpace=wrap;rounded=0;" vertex="1" parent="1">
          <mxGeometry x="90" y="350" width="150" height="30" as="geometry" />
        </mxCell>
        <mxCell id="WnnLF2jjsHIoj1KAghEo-42" value="newDataEn, frameEndEn" style="text;html=1;align=center;verticalAlign=middle;whiteSpace=wrap;rounded=0;" vertex="1" parent="1">
          <mxGeometry x="-150" y="260" width="150" height="20" as="geometry" />
        </mxCell>
        <mxCell id="WnnLF2jjsHIoj1KAghEo-43" value="{shiftInCountEn}" style="text;html=1;align=center;verticalAlign=middle;whiteSpace=wrap;rounded=0;" vertex="1" parent="1">
          <mxGeometry x="-163.75" y="280" width="177.5" height="20" as="geometry" />
        </mxCell>
        <mxCell id="WnnLF2jjsHIoj1KAghEo-44" value="LOAD_COUNT" style="text;html=1;align=center;verticalAlign=middle;whiteSpace=wrap;rounded=0;" vertex="1" parent="1">
          <mxGeometry y="220" width="80" height="20" as="geometry" />
        </mxCell>
        <mxCell id="WnnLF2jjsHIoj1KAghEo-46" value="SETUP_RX_A" style="text;html=1;align=center;verticalAlign=middle;whiteSpace=wrap;rounded=0;" vertex="1" parent="1">
          <mxGeometry x="-10" y="380" width="70" height="20" as="geometry" />
        </mxCell>
        <mxCell id="WnnLF2jjsHIoj1KAghEo-48" value="timerStartEn" style="text;html=1;align=center;verticalAlign=middle;whiteSpace=wrap;rounded=0;" vertex="1" parent="1">
          <mxGeometry x="55" y="430" width="70" height="20" as="geometry" />
        </mxCell>
        <mxCell id="WnnLF2jjsHIoj1KAghEo-54" style="edgeStyle=orthogonalEdgeStyle;rounded=0;orthogonalLoop=1;jettySize=auto;html=1;exitX=0.5;exitY=1;exitDx=0;exitDy=0;entryX=0.5;entryY=0;entryDx=0;entryDy=0;" edge="1" parent="1" source="WnnLF2jjsHIoj1KAghEo-49" target="WnnLF2jjsHIoj1KAghEo-53">
          <mxGeometry relative="1" as="geometry" />
        </mxCell>
        <mxCell id="WnnLF2jjsHIoj1KAghEo-49" value="" style="ellipse;whiteSpace=wrap;html=1;" vertex="1" parent="1">
          <mxGeometry x="240" y="400" width="120" height="80" as="geometry" />
        </mxCell>
        <mxCell id="WnnLF2jjsHIoj1KAghEo-51" value="SETUP_RX_B" style="text;html=1;align=center;verticalAlign=middle;whiteSpace=wrap;rounded=0;" vertex="1" parent="1">
          <mxGeometry x="200" y="380" width="70" height="20" as="geometry" />
        </mxCell>
        <mxCell id="WnnLF2jjsHIoj1KAghEo-52" value="addressClearEn" style="text;html=1;align=center;verticalAlign=middle;whiteSpace=wrap;rounded=0;" vertex="1" parent="1">
          <mxGeometry x="255" y="430" width="90" height="17.5" as="geometry" />
        </mxCell>
        <mxCell id="WnnLF2jjsHIoj1KAghEo-56" style="edgeStyle=orthogonalEdgeStyle;rounded=0;orthogonalLoop=1;jettySize=auto;html=1;exitX=1;exitY=0;exitDx=0;exitDy=0;entryX=0;entryY=1;entryDx=0;entryDy=0;" edge="1" parent="1" source="WnnLF2jjsHIoj1KAghEo-53" target="WnnLF2jjsHIoj1KAghEo-1">
          <mxGeometry relative="1" as="geometry">
            <Array as="points">
              <mxPoint x="430" y="532" />
              <mxPoint x="430" y="108" />
            </Array>
          </mxGeometry>
        </mxCell>
        <mxCell id="WnnLF2jjsHIoj1KAghEo-59" style="edgeStyle=orthogonalEdgeStyle;rounded=0;orthogonalLoop=1;jettySize=auto;html=1;exitX=0;exitY=0;exitDx=0;exitDy=0;entryX=1;entryY=0;entryDx=0;entryDy=0;" edge="1" parent="1" source="WnnLF2jjsHIoj1KAghEo-53" target="WnnLF2jjsHIoj1KAghEo-58">
          <mxGeometry relative="1" as="geometry" />
        </mxCell>
        <mxCell id="WnnLF2jjsHIoj1KAghEo-53" value="" style="ellipse;whiteSpace=wrap;html=1;" vertex="1" parent="1">
          <mxGeometry x="240" y="520" width="120" height="80" as="geometry" />
        </mxCell>
        <mxCell id="WnnLF2jjsHIoj1KAghEo-57" style="edgeStyle=orthogonalEdgeStyle;rounded=0;orthogonalLoop=1;jettySize=auto;html=1;exitX=1;exitY=0.5;exitDx=0;exitDy=0;entryX=0.336;entryY=1.012;entryDx=0;entryDy=0;entryPerimeter=0;" edge="1" parent="1" source="WnnLF2jjsHIoj1KAghEo-53" target="WnnLF2jjsHIoj1KAghEo-1">
          <mxGeometry relative="1" as="geometry" />
        </mxCell>
        <mxCell id="WnnLF2jjsHIoj1KAghEo-60" style="edgeStyle=orthogonalEdgeStyle;rounded=0;orthogonalLoop=1;jettySize=auto;html=1;exitX=1;exitY=1;exitDx=0;exitDy=0;entryX=0;entryY=1;entryDx=0;entryDy=0;" edge="1" parent="1" source="WnnLF2jjsHIoj1KAghEo-58" target="WnnLF2jjsHIoj1KAghEo-53">
          <mxGeometry relative="1" as="geometry" />
        </mxCell>
        <mxCell id="WnnLF2jjsHIoj1KAghEo-58" value="" style="ellipse;whiteSpace=wrap;html=1;" vertex="1" parent="1">
          <mxGeometry x="-67.5" y="520" width="120" height="80" as="geometry" />
        </mxCell>
        <mxCell id="WnnLF2jjsHIoj1KAghEo-61" value="addressIncrementEn" style="text;html=1;align=center;verticalAlign=middle;whiteSpace=wrap;rounded=0;" vertex="1" parent="1">
          <mxGeometry x="-67.5" y="547.5" width="120" height="25" as="geometry" />
        </mxCell>
        <mxCell id="WnnLF2jjsHIoj1KAghEo-62" value="READ_DATA" style="text;html=1;align=center;verticalAlign=middle;whiteSpace=wrap;rounded=0;" vertex="1" parent="1">
          <mxGeometry x="265" y="600" width="70" height="20" as="geometry" />
        </mxCell>
        <mxCell id="WnnLF2jjsHIoj1KAghEo-63" value="INCREMENT_ADDRESS" style="text;html=1;align=center;verticalAlign=middle;whiteSpace=wrap;rounded=0;" vertex="1" parent="1">
          <mxGeometry x="-75" y="600" width="135" height="20" as="geometry" />
        </mxCell>
        <mxCell id="WnnLF2jjsHIoj1KAghEo-64" value="newDataEn, !frameEndEn" style="text;html=1;align=center;verticalAlign=middle;whiteSpace=wrap;rounded=0;" vertex="1" parent="1">
          <mxGeometry x="70" y="510" width="152.5" height="20" as="geometry" />
        </mxCell>
        <mxCell id="WnnLF2jjsHIoj1KAghEo-65" value="{writeEn}" style="text;html=1;align=center;verticalAlign=middle;whiteSpace=wrap;rounded=0;" vertex="1" parent="1">
          <mxGeometry x="116.25" y="530" width="60" height="22.5" as="geometry" />
        </mxCell>
        <mxCell id="WnnLF2jjsHIoj1KAghEo-66" value="newDataEn, frameEndEn" style="text;html=1;align=center;verticalAlign=middle;whiteSpace=wrap;rounded=0;" vertex="1" parent="1">
          <mxGeometry x="370" y="540" width="152.5" height="20" as="geometry" />
        </mxCell>
        <mxCell id="WnnLF2jjsHIoj1KAghEo-67" value="{writeEn,timerEndEn}" style="text;html=1;align=center;verticalAlign=middle;whiteSpace=wrap;rounded=0;" vertex="1" parent="1">
          <mxGeometry x="383.13" y="560" width="126.25" height="22.5" as="geometry" />
        </mxCell>
        <mxCell id="WnnLF2jjsHIoj1KAghEo-68" value="!newDataEn, frameEndEn" style="text;html=1;align=center;verticalAlign=middle;whiteSpace=wrap;rounded=0;rotation=0;" vertex="1" parent="1">
          <mxGeometry x="345" y="500" width="90" height="30" as="geometry" />
        </mxCell>
        <mxCell id="WnnLF2jjsHIoj1KAghEo-70" value="{timerEndEn}" style="text;html=1;align=center;verticalAlign=middle;whiteSpace=wrap;rounded=0;" vertex="1" parent="1">
          <mxGeometry x="355" y="527.5" width="80" height="20" as="geometry" />
        </mxCell>
        <mxCell id="WnnLF2jjsHIoj1KAghEo-71" value="Sending Over UART" style="text;html=1;align=center;verticalAlign=middle;whiteSpace=wrap;rounded=0;" vertex="1" parent="1">
          <mxGeometry x="760" y="-30" width="130" height="30" as="geometry" />
        </mxCell>
        <mxCell id="WnnLF2jjsHIoj1KAghEo-77" style="edgeStyle=orthogonalEdgeStyle;rounded=0;orthogonalLoop=1;jettySize=auto;html=1;exitX=0.5;exitY=1;exitDx=0;exitDy=0;" edge="1" parent="1" source="WnnLF2jjsHIoj1KAghEo-72">
          <mxGeometry relative="1" as="geometry">
            <mxPoint x="909.8571428571427" y="200" as="targetPoint" />
          </mxGeometry>
        </mxCell>
        <mxCell id="WnnLF2jjsHIoj1KAghEo-72" value="" style="ellipse;whiteSpace=wrap;html=1;" vertex="1" parent="1">
          <mxGeometry x="850" y="40" width="120" height="80" as="geometry" />
        </mxCell>
        <mxCell id="WnnLF2jjsHIoj1KAghEo-74" value="sendToUartEn" style="text;html=1;align=center;verticalAlign=middle;whiteSpace=wrap;rounded=0;" vertex="1" parent="1">
          <mxGeometry x="680" y="60" width="80" height="20" as="geometry" />
        </mxCell>
        <mxCell id="WnnLF2jjsHIoj1KAghEo-75" value="{headerLoadEn, addressClearEn}" style="text;html=1;align=center;verticalAlign=middle;whiteSpace=wrap;rounded=0;" vertex="1" parent="1">
          <mxGeometry x="620" y="80" width="200" height="15" as="geometry" />
        </mxCell>
        <mxCell id="WnnLF2jjsHIoj1KAghEo-76" value="DELAY_TX_START" style="text;html=1;align=center;verticalAlign=middle;whiteSpace=wrap;rounded=0;" vertex="1" parent="1">
          <mxGeometry x="845" y="20" width="130" height="20" as="geometry" />
        </mxCell>
        <mxCell id="WnnLF2jjsHIoj1KAghEo-86" style="edgeStyle=orthogonalEdgeStyle;rounded=0;orthogonalLoop=1;jettySize=auto;html=1;exitX=1;exitY=0.5;exitDx=0;exitDy=0;" edge="1" parent="1" source="WnnLF2jjsHIoj1KAghEo-79" target="WnnLF2jjsHIoj1KAghEo-85">
          <mxGeometry relative="1" as="geometry" />
        </mxCell>
        <mxCell id="WnnLF2jjsHIoj1KAghEo-79" value="" style="ellipse;whiteSpace=wrap;html=1;" vertex="1" parent="1">
          <mxGeometry x="850" y="200" width="120" height="80" as="geometry" />
        </mxCell>
        <mxCell id="WnnLF2jjsHIoj1KAghEo-80" value="HEADER_SEND" style="text;html=1;align=center;verticalAlign=middle;whiteSpace=wrap;rounded=0;" vertex="1" parent="1">
          <mxGeometry x="860" y="280" width="100" height="20" as="geometry" />
        </mxCell>
        <mxCell id="WnnLF2jjsHIoj1KAghEo-82" style="edgeStyle=orthogonalEdgeStyle;rounded=0;orthogonalLoop=1;jettySize=auto;html=1;exitX=0;exitY=0;exitDx=0;exitDy=0;entryX=0;entryY=0.5;entryDx=0;entryDy=0;" edge="1" parent="1" source="WnnLF2jjsHIoj1KAghEo-79" target="WnnLF2jjsHIoj1KAghEo-79">
          <mxGeometry relative="1" as="geometry">
            <Array as="points">
              <mxPoint x="868" y="180" />
              <mxPoint x="680" y="180" />
              <mxPoint x="680" y="300" />
              <mxPoint x="830" y="300" />
              <mxPoint x="830" y="240" />
            </Array>
          </mxGeometry>
        </mxCell>
        <mxCell id="WnnLF2jjsHIoj1KAghEo-83" value="txComplete, !headerCompleteMode&lt;div&gt;{headerNextEn, txEn}&lt;/div&gt;" style="text;html=1;align=center;verticalAlign=middle;whiteSpace=wrap;rounded=0;" vertex="1" parent="1">
          <mxGeometry x="672" y="164" width="198" height="30" as="geometry" />
        </mxCell>
        <mxCell id="WnnLF2jjsHIoj1KAghEo-108" style="edgeStyle=orthogonalEdgeStyle;rounded=0;orthogonalLoop=1;jettySize=auto;html=1;exitX=0.5;exitY=1;exitDx=0;exitDy=0;entryX=1;entryY=0.5;entryDx=0;entryDy=0;" edge="1" parent="1" source="WnnLF2jjsHIoj1KAghEo-85" target="WnnLF2jjsHIoj1KAghEo-90">
          <mxGeometry relative="1" as="geometry" />
        </mxCell>
        <mxCell id="WnnLF2jjsHIoj1KAghEo-85" value="" style="ellipse;whiteSpace=wrap;html=1;" vertex="1" parent="1">
          <mxGeometry x="1200" y="200" width="120" height="80" as="geometry" />
        </mxCell>
        <mxCell id="WnnLF2jjsHIoj1KAghEo-87" value="txComplete, headerCompleteMode" style="text;html=1;align=center;verticalAlign=middle;whiteSpace=wrap;rounded=0;" vertex="1" parent="1">
          <mxGeometry x="980" y="228.75" width="200" height="11.25" as="geometry" />
        </mxCell>
        <mxCell id="WnnLF2jjsHIoj1KAghEo-88" value="READ_FIRST_BYTE" style="text;html=1;align=center;verticalAlign=middle;whiteSpace=wrap;rounded=0;" vertex="1" parent="1">
          <mxGeometry x="1200" y="180" width="120" height="20" as="geometry" />
        </mxCell>
        <mxCell id="WnnLF2jjsHIoj1KAghEo-89" value="readEn&lt;div&gt;addressIncrementEn&lt;/div&gt;&lt;div&gt;dataSelect&lt;/div&gt;" style="text;html=1;align=center;verticalAlign=middle;whiteSpace=wrap;rounded=0;" vertex="1" parent="1">
          <mxGeometry x="1200" y="221.09" width="120" height="37.81" as="geometry" />
        </mxCell>
        <mxCell id="WnnLF2jjsHIoj1KAghEo-97" style="edgeStyle=orthogonalEdgeStyle;rounded=0;orthogonalLoop=1;jettySize=auto;html=1;exitX=0.5;exitY=1;exitDx=0;exitDy=0;entryX=1;entryY=1;entryDx=0;entryDy=0;" edge="1" parent="1" source="WnnLF2jjsHIoj1KAghEo-90" target="WnnLF2jjsHIoj1KAghEo-1">
          <mxGeometry relative="1" as="geometry">
            <Array as="points">
              <mxPoint x="910" y="510" />
              <mxPoint x="592" y="510" />
            </Array>
          </mxGeometry>
        </mxCell>
        <mxCell id="WnnLF2jjsHIoj1KAghEo-90" value="" style="ellipse;whiteSpace=wrap;html=1;" vertex="1" parent="1">
          <mxGeometry x="850" y="360" width="120" height="80" as="geometry" />
        </mxCell>
        <mxCell id="WnnLF2jjsHIoj1KAghEo-93" value="dataSelect" style="text;html=1;align=center;verticalAlign=middle;whiteSpace=wrap;rounded=0;" vertex="1" parent="1">
          <mxGeometry x="880" y="392.5" width="60" height="15" as="geometry" />
        </mxCell>
        <mxCell id="WnnLF2jjsHIoj1KAghEo-96" style="edgeStyle=orthogonalEdgeStyle;rounded=0;orthogonalLoop=1;jettySize=auto;html=1;exitX=0;exitY=0;exitDx=0;exitDy=0;entryX=0;entryY=1;entryDx=0;entryDy=0;" edge="1" parent="1" source="WnnLF2jjsHIoj1KAghEo-90" target="WnnLF2jjsHIoj1KAghEo-90">
          <mxGeometry relative="1" as="geometry">
            <Array as="points">
              <mxPoint x="868" y="340" />
              <mxPoint x="640" y="340" />
              <mxPoint x="640" y="460" />
              <mxPoint x="868" y="460" />
            </Array>
          </mxGeometry>
        </mxCell>
        <mxCell id="WnnLF2jjsHIoj1KAghEo-98" value="BODY_SEND" style="text;html=1;align=center;verticalAlign=middle;whiteSpace=wrap;rounded=0;" vertex="1" parent="1">
          <mxGeometry x="875" y="342.5" width="70" height="15" as="geometry" />
        </mxCell>
        <mxCell id="WnnLF2jjsHIoj1KAghEo-99" value="txComplete, addressTerminalMode" style="text;html=1;align=center;verticalAlign=middle;whiteSpace=wrap;rounded=0;" vertex="1" parent="1">
          <mxGeometry x="680" y="480" width="140" height="30" as="geometry" />
        </mxCell>
        <mxCell id="WnnLF2jjsHIoj1KAghEo-100" value="txComplete, !addressTerminalMode" style="text;html=1;align=center;verticalAlign=middle;whiteSpace=wrap;rounded=0;" vertex="1" parent="1">
          <mxGeometry x="652.5" y="320" width="195" height="20" as="geometry" />
        </mxCell>
        <mxCell id="WnnLF2jjsHIoj1KAghEo-107" value="{readEn, addressIncrementEn, txEn}" style="text;html=1;align=center;verticalAlign=middle;whiteSpace=wrap;rounded=0;" vertex="1" parent="1">
          <mxGeometry x="650" y="340" width="200" height="20" as="geometry" />
        </mxCell>
        <mxCell id="WnnLF2jjsHIoj1KAghEo-109" value="{txEn}" style="text;html=1;align=center;verticalAlign=middle;whiteSpace=wrap;rounded=0;" vertex="1" parent="1">
          <mxGeometry x="1060" y="240" width="50" height="20" as="geometry" />
        </mxCell>
        <mxCell id="WnnLF2jjsHIoj1KAghEo-111" value="{txEn}" style="text;html=1;align=center;verticalAlign=middle;whiteSpace=wrap;rounded=0;" vertex="1" parent="1">
          <mxGeometry x="725" y="510" width="50" height="20" as="geometry" />
        </mxCell>
      </root>
    </mxGraphModel>
  </diagram>
</mxfile>
